<svg xmlns="http://www.w3.org/2000/svg" viewBox="0 0 50 50" width="50" height="50">
	<style>
		tspan { white-space:pre }
	</style>
	<path fill="#26c6da" d="M 4.718 40.84 C 4.718 42.44 5.598 43.24 7.358 43.24 C 9.118 43.24 11.385 42.307 14.158 40.44 C 16.931 38.573 19.625 36.04 22.238 32.84 C 22.878 31.987 23.385 31.56 23.758 31.56 C 24.131 31.56 24.318 31.72 24.318 32.04 C 24.318 32.36 23.225 33.747 21.038 36.2 C 15.705 42.067 11.251 45 7.678 45 C 5.918 45 4.425 44.6 3.198 43.8 C 1.971 42.947 1.358 41.667 1.358 39.96 C 1.358 38.2 1.811 36.173 2.718 33.88 C 4.265 30.253 6.745 25.693 10.158 20.2 C 16.398 10.067 20.825 5 23.438 5 C 23.971 5 24.505 5.213 25.038 5.64 C 25.625 6.013 25.945 6.44 25.998 6.92 C 24.771 8.573 22.398 11.747 18.878 16.44 C 15.411 21.133 13.011 24.52 11.678 26.6 C 10.345 28.627 9.331 30.147 8.638 31.16 C 7.998 32.173 7.518 32.973 7.198 33.56 C 6.878 34.093 6.505 34.813 6.078 35.72 C 5.171 37.533 4.718 39.24 4.718 40.84 Z"></path>
	<path fill="#e83e8c" d="M 27.523 44.619 C 26.936 44.619 26.403 44.539 25.923 44.379 C 22.51 43.419 20.803 41.499 20.803 38.619 C 20.803 34.886 23.15 30.566 27.843 25.659 C 32.536 20.752 36.75 18.299 40.483 18.299 C 41.71 18.299 42.696 18.646 43.443 19.339 C 44.243 19.979 44.643 20.886 44.643 22.059 C 44.643 23.179 44.296 24.379 43.603 25.659 C 42.91 26.886 41.87 27.499 40.483 27.499 C 39.096 27.499 38.403 27.072 38.403 26.219 C 38.403 25.632 38.75 24.752 39.443 23.579 C 40.19 22.352 40.563 21.712 40.563 21.659 C 40.563 21.552 40.483 21.499 40.323 21.499 C 38.83 21.659 36.776 22.726 34.163 24.699 C 31.603 26.672 29.843 28.326 28.883 29.659 L 25.763 34.219 C 25.23 35.072 24.83 36.086 24.563 37.259 C 24.35 38.432 24.243 39.312 24.243 39.899 C 24.243 40.486 24.563 41.152 25.203 41.899 C 25.896 42.646 26.856 43.019 28.083 43.019 C 30.75 43.019 34.056 41.472 38.003 38.379 C 41.95 35.232 44.99 32.246 47.123 29.419 C 47.39 29.099 47.71 28.939 48.083 28.939 C 48.456 28.939 48.643 29.046 48.643 29.259 C 48.643 29.472 48.51 29.739 48.243 30.059 C 45.31 33.952 41.79 37.366 37.683 40.299 C 33.63 43.179 30.243 44.619 27.523 44.619 Z"></path>
</svg>