<?xml version="1.0" encoding="UTF-8"?>
<svg width="36" height="28" viewBox="0 0 36 28" fill="none" xmlns="http://www.w3.org/2000/svg">
    <style>
        .st0 {
            fill: light-dark(#000, #fff);
        }
    </style>
    <g clip-path="url(#clip0_4007_2088)">
        <path d="M10.0192 8.47184L18.0271 12.9297L21.2279 11.1478L13.2192 6.69107L10.0192 8.47184ZM22.834 10.2536L26.035 8.47184C23.3649 6.98574 20.6969 5.50187 18.0271 4.01576L14.8257 5.79717L22.834 10.2536ZM23.5068 11.3692V13.3132L21.8938 14.2111V12.2672L18.699 14.0454V22.9594L26.7013 18.5064V9.59101L23.5068 11.3692ZM8.00879 18.8773L8.01164 8.47184C8.01137 8.23668 8.14219 8.02498 8.35414 7.90883L13.0178 5.31122L17.6836 2.71408C17.8856 2.5981 18.1452 2.58821 18.363 2.70978C21.4606 4.43391 24.5545 6.15789 27.6523 7.88219C27.8841 7.98446 28.0454 8.20988 28.0454 8.47184L28.0424 18.8773C28.0423 19.1005 27.922 19.3175 27.7067 19.4366L23.0362 22.0379L18.4032 24.6169C18.156 24.7662 17.8982 24.7662 17.6508 24.6169C14.5667 22.9 11.4861 21.1836 8.40191 19.467C8.16992 19.3648 8.00879 19.1391 8.00879 18.8773Z"  class="st0" />
        <path fill-rule="evenodd" clip-rule="evenodd" d="M31.8775 0.000188828H29.3433V1.46412C32.6782 1.46412 31.8775 0.768209 31.8775 11.722C31.8775 12.7798 32.2559 13.4311 33.0174 13.6758C32.2559 13.9206 31.8775 14.5718 31.8775 15.6297C31.8775 26.5835 32.6782 25.8876 29.3433 25.8876V27.3514H31.8775C33.4747 27.3514 34.4062 26.3182 34.4062 24.9133V15.5096C34.4062 14.4146 35.2802 14.5355 36.0542 14.5355V13.6758V12.8163C35.2802 12.8163 34.4062 12.9371 34.4062 11.8421V2.43842C34.4062 1.03368 33.4747 0.000188828 31.8775 0.000188828ZM4.17687 0.000188828H6.71106V1.46412C3.37635 1.46412 4.17687 0.768209 4.17687 11.722C4.17687 12.7798 3.79867 13.4311 3.03694 13.6758C3.79867 13.9206 4.17687 14.5718 4.17687 15.6297C4.17687 26.5835 3.37635 25.8876 6.71106 25.8876V27.3514H4.17687C2.57976 27.3514 1.6481 26.3182 1.6481 24.9133V15.5096C1.6481 14.4146 0.774344 14.5355 0 14.5355V13.6758V12.8163C0.774344 12.8163 1.6481 12.9371 1.6481 11.8421V2.43842C1.6481 1.03368 2.57976 0.000188828 4.17687 0.000188828Z"  class="st0" />
    </g>
    <path d="M47.7982 19L44.6936 8.14988H47.1995L48.9955 15.6888H49.0856L51.067 8.14988H53.2126L55.1887 15.7047H55.2841L57.0801 8.14988H59.586L56.4814 19H54.2457L52.1795 11.9061H52.0948L50.0339 19H47.7982ZM60.8138 19V8.14988H65.0945C65.9175 8.14988 66.6186 8.30705 67.1978 8.62139C67.777 8.9322 68.2185 9.36486 68.5223 9.91938C68.8295 10.4704 68.9832 11.1061 68.9832 11.8266C68.9832 12.5471 68.8278 13.1829 68.517 13.7339C68.2062 14.2849 67.7558 14.714 67.166 15.0213C66.5797 15.3285 65.8698 15.4822 65.0362 15.4822H62.3078V13.6438H64.6654C65.1069 13.6438 65.4707 13.5679 65.7568 13.416C66.0464 13.2606 66.2618 13.0469 66.4031 12.775C66.5479 12.4995 66.6203 12.1834 66.6203 11.8266C66.6203 11.4664 66.5479 11.152 66.4031 10.8836C66.2618 10.6116 66.0464 10.4015 65.7568 10.2531C65.4671 10.1013 65.0998 10.0253 64.6548 10.0253H63.1078V19H60.8138ZM80.0465 11.9485H77.7261C77.6837 11.6483 77.5971 11.3816 77.4665 11.1485C77.3358 10.9119 77.168 10.7105 76.9632 10.5445C76.7583 10.3785 76.5217 10.2514 76.2532 10.1631C75.9883 10.0748 75.7005 10.0306 75.3897 10.0306C74.8281 10.0306 74.3389 10.1701 73.9222 10.4492C73.5054 10.7247 73.1822 11.1273 72.9526 11.6571C72.7231 12.1834 72.6083 12.8226 72.6083 13.5749C72.6083 14.3484 72.7231 14.9983 72.9526 15.5246C73.1858 16.0508 73.5107 16.4482 73.9275 16.7166C74.3442 16.985 74.8263 17.1192 75.3738 17.1192C75.6811 17.1192 75.9654 17.0786 76.2268 16.9974C76.4916 16.9162 76.7265 16.7978 76.9314 16.6424C77.1362 16.4835 77.3058 16.291 77.44 16.065C77.5777 15.8389 77.6731 15.5811 77.7261 15.2915L80.0465 15.3021C79.9865 15.8001 79.8364 16.2804 79.5962 16.7431C79.3596 17.2022 79.0399 17.6137 78.6373 17.9775C78.2382 18.3378 77.7614 18.6238 77.2069 18.8358C76.6559 19.0441 76.0325 19.1483 75.3367 19.1483C74.369 19.1483 73.5036 18.9294 72.7407 18.4914C71.9814 18.0534 71.3809 17.4195 70.9394 16.5895C70.5015 15.7594 70.2825 14.7546 70.2825 13.5749C70.2825 12.3917 70.505 11.3851 70.95 10.5551C71.3951 9.72512 71.999 9.09291 72.7619 8.65848C73.5248 8.22052 74.3831 8.00154 75.3367 8.00154C75.9654 8.00154 76.5482 8.08983 77.085 8.26643C77.6254 8.44303 78.104 8.70086 78.5207 9.03993C78.9375 9.37546 79.2766 9.78693 79.5379 10.2743C79.8028 10.7617 79.9724 11.3198 80.0465 11.9485ZM85.3259 19.1589C84.503 19.1589 83.7913 18.9841 83.1909 18.6344C82.594 18.2812 82.133 17.7903 81.8081 17.1616C81.4832 16.5294 81.3207 15.7965 81.3207 14.963C81.3207 14.1224 81.4832 13.3877 81.8081 12.7591C82.133 12.1268 82.594 11.6359 83.1909 11.2862C83.7913 10.933 84.503 10.7564 85.3259 10.7564C86.1489 10.7564 86.8588 10.933 87.4557 11.2862C88.0561 11.6359 88.5188 12.1268 88.8437 12.7591C89.1687 13.3877 89.3311 14.1224 89.3311 14.963C89.3311 15.7965 89.1687 16.5294 88.8437 17.1616C88.5188 17.7903 88.0561 18.2812 87.4557 18.6344C86.8588 18.9841 86.1489 19.1589 85.3259 19.1589ZM85.3365 17.4106C85.7109 17.4106 86.0235 17.3047 86.2742 17.0928C86.525 16.8773 86.714 16.5842 86.8411 16.2133C86.9718 15.8424 87.0371 15.4204 87.0371 14.9471C87.0371 14.4738 86.9718 14.0518 86.8411 13.6809C86.714 13.31 86.525 13.0169 86.2742 12.8014C86.0235 12.586 85.7109 12.4783 85.3365 12.4783C84.9586 12.4783 84.6407 12.586 84.3829 12.8014C84.1286 13.0169 83.9361 13.31 83.8054 13.6809C83.6783 14.0518 83.6147 14.4738 83.6147 14.9471C83.6147 15.4204 83.6783 15.8424 83.8054 16.2133C83.9361 16.5842 84.1286 16.8773 84.3829 17.0928C84.6407 17.3047 84.9586 17.4106 85.3365 17.4106ZM93.7973 19.1324C93.1792 19.1324 92.6194 18.9735 92.1178 18.6556C91.6198 18.3342 91.2243 17.8627 90.9311 17.2411C90.6415 16.6159 90.4967 15.8495 90.4967 14.9418C90.4967 14.0094 90.6468 13.2341 90.947 12.616C91.2472 11.9944 91.6463 11.5299 92.1443 11.2227C92.6459 10.9119 93.1951 10.7564 93.792 10.7564C94.2476 10.7564 94.6273 10.8342 94.931 10.9896C95.2383 11.1414 95.4855 11.3322 95.6727 11.5617C95.8635 11.7878 96.0083 12.0103 96.1072 12.2293H96.176V8.14988H98.4277V19H96.2025V17.6967H96.1072C96.0012 17.9228 95.8511 18.147 95.6568 18.3695C95.4661 18.5885 95.2171 18.7704 94.9098 18.9152C94.6061 19.06 94.2352 19.1324 93.7973 19.1324ZM94.5125 17.3365C94.8763 17.3365 95.1836 17.2376 95.4343 17.0398C95.6886 16.8385 95.8829 16.5577 96.0171 16.1974C96.1548 15.8371 96.2237 15.4151 96.2237 14.9312C96.2237 14.4473 96.1566 14.027 96.0224 13.6703C95.8882 13.3136 95.6939 13.0381 95.4396 12.8438C95.1853 12.6496 94.8763 12.5524 94.5125 12.5524C94.1416 12.5524 93.8291 12.6531 93.5748 12.8544C93.3205 13.0557 93.128 13.3348 92.9973 13.6915C92.8666 14.0482 92.8013 14.4615 92.8013 14.9312C92.8013 15.4045 92.8666 15.823 92.9973 16.1868C93.1315 16.5471 93.324 16.8296 93.5748 17.0345C93.8291 17.2358 94.1416 17.3365 94.5125 17.3365ZM103.992 19.1589C103.155 19.1589 102.434 18.9894 101.83 18.6503C101.23 18.3077 100.767 17.8239 100.442 17.1987C100.117 16.57 99.9548 15.8266 99.9548 14.9683C99.9548 14.1312 100.117 13.3966 100.442 12.7644C100.767 12.1321 101.225 11.6394 101.814 11.2862C102.408 10.933 103.103 10.7564 103.902 10.7564C104.439 10.7564 104.938 10.843 105.401 11.016C105.867 11.1856 106.273 11.4416 106.62 11.7842C106.969 12.1268 107.241 12.5577 107.435 13.0769C107.63 13.5926 107.727 14.1966 107.727 14.8888V15.5087H100.855V14.11H105.602C105.602 13.7851 105.532 13.4972 105.39 13.2465C105.249 12.9957 105.053 12.7997 104.802 12.6584C104.555 12.5136 104.267 12.4412 103.939 12.4412C103.596 12.4412 103.292 12.5207 103.028 12.6796C102.766 12.835 102.561 13.0451 102.413 13.31C102.265 13.5714 102.189 13.8628 102.185 14.1842V15.514C102.185 15.9166 102.259 16.2645 102.408 16.5577C102.56 16.8508 102.773 17.0769 103.049 17.2358C103.324 17.3947 103.651 17.4742 104.029 17.4742C104.28 17.4742 104.509 17.4389 104.718 17.3682C104.926 17.2976 105.104 17.1916 105.253 17.0504C105.401 16.9091 105.514 16.736 105.592 16.5312L107.679 16.6689C107.573 17.1705 107.356 17.6084 107.027 17.9828C106.703 18.3537 106.282 18.6433 105.767 18.8517C105.254 19.0565 104.663 19.1589 103.992 19.1589ZM109.242 19V8.14988H113.586C114.385 8.14988 115.05 8.2682 115.584 8.50484C116.117 8.74148 116.518 9.06995 116.786 9.49025C117.055 9.90702 117.189 10.3874 117.189 10.9313C117.189 11.3551 117.104 11.7277 116.935 12.0491C116.765 12.367 116.532 12.6284 116.235 12.8332C115.942 13.0346 115.607 13.1776 115.229 13.2624V13.3683C115.642 13.386 116.029 13.5025 116.389 13.718C116.753 13.9334 117.048 14.2354 117.274 14.6239C117.5 15.0089 117.613 15.4681 117.613 16.0014C117.613 16.5771 117.47 17.091 117.184 17.5431C116.901 17.9916 116.482 18.3466 115.928 18.608C115.373 18.8693 114.69 19 113.878 19H109.242ZM111.536 17.1245H113.406C114.045 17.1245 114.512 17.0027 114.805 16.759C115.098 16.5117 115.245 16.1833 115.245 15.7736C115.245 15.4734 115.172 15.2085 115.027 14.9789C114.883 14.7493 114.676 14.5692 114.407 14.4385C114.143 14.3078 113.826 14.2425 113.459 14.2425H111.536V17.1245ZM111.536 12.6902H113.237C113.551 12.6902 113.83 12.6354 114.074 12.526C114.321 12.4129 114.515 12.254 114.656 12.0491C114.801 11.8443 114.874 11.5988 114.874 11.3127C114.874 10.9207 114.734 10.6046 114.455 10.3644C114.18 10.1242 113.788 10.0041 113.279 10.0041H111.536V12.6902ZM122.74 19.1589C121.917 19.1589 121.205 18.9841 120.605 18.6344C120.008 18.2812 119.547 17.7903 119.222 17.1616C118.897 16.5294 118.735 15.7965 118.735 14.963C118.735 14.1224 118.897 13.3877 119.222 12.7591C119.547 12.1268 120.008 11.6359 120.605 11.2862C121.205 10.933 121.917 10.7564 122.74 10.7564C123.563 10.7564 124.273 10.933 124.87 11.2862C125.47 11.6359 125.933 12.1268 126.258 12.7591C126.583 13.3877 126.745 14.1224 126.745 14.963C126.745 15.7965 126.583 16.5294 126.258 17.1616C125.933 17.7903 125.47 18.2812 124.87 18.6344C124.273 18.9841 123.563 19.1589 122.74 19.1589ZM122.75 17.4106C123.125 17.4106 123.437 17.3047 123.688 17.0928C123.939 16.8773 124.128 16.5842 124.255 16.2133C124.386 15.8424 124.451 15.4204 124.451 14.9471C124.451 14.4738 124.386 14.0518 124.255 13.6809C124.128 13.31 123.939 13.0169 123.688 12.8014C123.437 12.586 123.125 12.4783 122.75 12.4783C122.372 12.4783 122.055 12.586 121.797 12.8014C121.542 13.0169 121.35 13.31 121.219 13.6809C121.092 14.0518 121.029 14.4738 121.029 14.9471C121.029 15.4204 121.092 15.8424 121.219 16.2133C121.35 16.5842 121.542 16.8773 121.797 17.0928C122.055 17.3047 122.372 17.4106 122.75 17.4106ZM129.807 10.8624L131.301 13.7074L132.832 10.8624H135.147L132.79 14.9312L135.211 19H132.906L131.301 16.1868L129.722 19H127.391L129.807 14.9312L127.476 10.8624H129.807Z"  class="st0" />
    <defs>
        <clipPath id="clip0_4007_2088">
            <rect width="36.0541" height="27.3514"  class="st0" />
        </clipPath>
    </defs>
</svg>